<svg width="16" height="16" viewBox="0 0 16 16" fill="none" xmlns="http://www.w3.org/2000/svg">
<path d="M8.00033 0.666504C9.33076 0.666504 10.5578 0.994339 11.6813 1.65001C12.8049 2.30568 13.6945 3.19529 14.3502 4.31885C15.0058 5.4424 15.3337 6.6694 15.3337 7.99984C15.3337 9.33028 15.0058 10.5573 14.3502 11.6808C13.6945 12.8044 12.8049 13.694 11.6813 14.3497C10.5578 15.0053 9.33076 15.3332 8.00033 15.3332C6.66989 15.3332 5.44289 15.0053 4.31934 14.3497C3.19578 13.694 2.30617 12.8044 1.6505 11.6808C0.994828 10.5573 0.666992 9.33028 0.666992 7.99984C0.666992 6.6694 0.994828 5.4424 1.6505 4.31885C2.30617 3.19529 3.19578 2.30568 4.31934 1.65001C5.44289 0.994339 6.66989 0.666504 8.00033 0.666504Z" fill="#328CFF"/>
<path fill-rule="evenodd" clip-rule="evenodd" d="M7.8335 0.333252C9.19417 0.333252 10.4491 0.668538 11.5981 1.33911C12.7472 2.00968 13.6571 2.91952 14.3276 4.0686C14.9982 5.21769 15.3335 6.47258 15.3335 7.83325C15.3335 9.19393 14.9982 10.4488 14.3276 11.5979C13.6571 12.747 12.7472 13.6568 11.5981 14.3274C10.4491 14.998 9.19417 15.3333 7.8335 15.3333C6.47282 15.3333 5.21794 14.998 4.06885 14.3274C2.91976 13.6568 2.00993 12.747 1.33936 11.5979C0.668783 10.4488 0.333496 9.19393 0.333496 7.83325C0.333496 6.47258 0.668783 5.21769 1.33936 4.0686C2.00993 2.91952 2.91976 2.00968 4.06885 1.33911C5.21794 0.668538 6.47282 0.333252 7.8335 0.333252ZM10.5093 5.42119C10.4963 5.4277 10.4653 5.45862 10.4165 5.51396C10.3704 5.56625 10.3286 5.59675 10.2912 5.60544C10.3025 5.601 10.315 5.58515 10.3286 5.55791C10.3449 5.52536 10.3612 5.48955 10.3774 5.45049C10.3937 5.41142 10.4051 5.38864 10.4116 5.38213C10.4507 5.33655 10.5223 5.28773 10.6265 5.23564C10.7176 5.19658 10.8869 5.15752 11.1343 5.11846C11.3556 5.06637 11.5216 5.10218 11.6323 5.22588C11.6193 5.21286 11.6502 5.17054 11.7251 5.09892C11.8 5.02731 11.8472 4.98825 11.8667 4.98174C11.8862 4.96872 11.9351 4.95407 12.0132 4.93779C12.0913 4.92151 12.1401 4.8971 12.1597 4.86455L12.1792 4.64971C12.1011 4.65622 12.0441 4.63343 12.0083 4.58135C11.9725 4.52926 11.9513 4.4609 11.9448 4.37627C11.9448 4.38929 11.9253 4.41533 11.8862 4.45439C11.8862 4.40882 11.8716 4.38278 11.8423 4.37627C11.813 4.36976 11.7756 4.37301 11.73 4.38603C11.6844 4.39905 11.6551 4.40231 11.6421 4.3958C11.577 4.37627 11.5282 4.35185 11.4956 4.32256C11.4631 4.29326 11.437 4.23955 11.4175 4.16142C11.3979 4.0833 11.3849 4.03447 11.3784 4.01494C11.3654 3.98239 11.3345 3.94658 11.2856 3.90752C11.2368 3.86846 11.2059 3.8359 11.1929 3.80986C11.1864 3.79684 11.1782 3.77894 11.1685 3.75615C11.1587 3.73336 11.1489 3.71221 11.1392 3.69267C11.1294 3.67314 11.1164 3.65524 11.1001 3.63896C11.0838 3.62269 11.0659 3.61455 11.0464 3.61455C11.0269 3.61455 11.0041 3.63083 10.978 3.66338C10.952 3.69593 10.9276 3.72848 10.9048 3.76103C10.882 3.79359 10.8674 3.80986 10.8608 3.80986C10.8413 3.79684 10.8218 3.79196 10.8022 3.79521C10.7827 3.79847 10.7681 3.80172 10.7583 3.80498C10.7485 3.80823 10.7339 3.818 10.7144 3.83428C10.6948 3.85055 10.6785 3.86194 10.6655 3.86846C10.646 3.88148 10.6183 3.89124 10.5825 3.89775C10.5467 3.90426 10.519 3.91077 10.4995 3.91728C10.5972 3.88473 10.5939 3.84892 10.4897 3.80986C10.4246 3.78382 10.3726 3.77405 10.3335 3.78056C10.3921 3.75452 10.4165 3.71546 10.4067 3.66338C10.397 3.61129 10.3693 3.56572 10.3237 3.52666H10.3726C10.366 3.50062 10.3384 3.47295 10.2896 3.44365C10.2407 3.41435 10.1838 3.38668 10.1187 3.36064C10.0535 3.3346 10.0112 3.31507 9.9917 3.30205C9.93962 3.2695 9.82894 3.23857 9.65967 3.20928C9.4904 3.17998 9.38298 3.17835 9.3374 3.20439C9.30485 3.24346 9.2902 3.27763 9.29346 3.30693C9.29671 3.33623 9.30973 3.3818 9.33252 3.44365C9.35531 3.5055 9.3667 3.54619 9.3667 3.56572C9.37321 3.60478 9.35531 3.6471 9.31299 3.69267C9.27067 3.73825 9.24951 3.77731 9.24951 3.80986C9.24951 3.85543 9.29508 3.90589 9.38623 3.96123C9.47738 4.01657 9.50993 4.08655 9.48389 4.17119C9.46436 4.22327 9.41227 4.27536 9.32764 4.32744C9.243 4.37952 9.19092 4.41859 9.17139 4.44463C9.13883 4.49671 9.13395 4.55693 9.15674 4.62529C9.17953 4.69365 9.21371 4.74736 9.25928 4.78642C9.2723 4.79944 9.27718 4.81247 9.27393 4.82549C9.27067 4.83851 9.25928 4.85316 9.23975 4.86943C9.22021 4.88571 9.20231 4.89873 9.18604 4.90849C9.16976 4.91826 9.1486 4.92965 9.12256 4.94267L9.09326 4.96221C9.02165 4.99476 8.95492 4.97523 8.89307 4.90361C8.83122 4.832 8.78727 4.74736 8.76123 4.64971C8.71566 4.48694 8.66357 4.38929 8.60498 4.35674C8.45524 4.30465 8.36084 4.30791 8.32178 4.3665C8.28923 4.28187 8.15576 4.19723 7.92139 4.1126C7.75863 4.054 7.56982 4.04098 7.35498 4.07353C7.39404 4.06702 7.39404 4.01819 7.35498 3.92705C7.30941 3.82939 7.24756 3.79033 7.16943 3.80986C7.18896 3.7708 7.20199 3.71383 7.2085 3.63896C7.21501 3.56409 7.21826 3.52015 7.21826 3.50713C7.23779 3.42249 7.27686 3.34762 7.33545 3.28252C7.34196 3.27601 7.36475 3.24834 7.40381 3.19951C7.44287 3.15068 7.4738 3.10674 7.49658 3.06767C7.51937 3.02861 7.521 3.00908 7.50146 3.00908C7.72933 3.03512 7.89209 2.99931 7.98975 2.90166C8.0223 2.86911 8.05973 2.81377 8.10205 2.73564C8.14437 2.65752 8.17855 2.60218 8.20459 2.56963C8.26318 2.53056 8.30876 2.51266 8.34131 2.51592C8.37386 2.51917 8.42106 2.53708 8.48291 2.56963C8.54476 2.60218 8.59196 2.61846 8.62451 2.61846C8.71566 2.62497 8.76611 2.58916 8.77588 2.51103C8.78564 2.43291 8.76123 2.3678 8.70264 2.31572C8.78076 2.32223 8.79053 2.26689 8.73193 2.14971C8.70589 2.10413 8.67985 2.07484 8.65381 2.06181C8.57568 2.03577 8.48779 2.05205 8.39014 2.11064C8.33857 2.13642 8.34444 2.16221 8.40774 2.18799C8.39826 2.18775 8.36798 2.22219 8.31689 2.29131C8.26156 2.36618 8.20785 2.42314 8.15576 2.46221C8.10368 2.50127 8.0516 2.48499 7.99951 2.41338C7.993 2.40687 7.9751 2.36292 7.9458 2.28154C7.9165 2.20016 7.88558 2.15622 7.85303 2.14971C7.80094 2.14971 7.74886 2.19853 7.69678 2.29619C7.71631 2.24411 7.6805 2.19528 7.58936 2.14971C7.49821 2.10413 7.42008 2.07809 7.35498 2.07158C7.47868 1.99346 7.45264 1.90556 7.27686 1.80791C7.23128 1.78187 7.16455 1.76559 7.07666 1.75908C6.98877 1.75257 6.92529 1.76559 6.88623 1.79814C6.85368 1.84372 6.83577 1.88115 6.83252 1.91045C6.82926 1.93974 6.84554 1.96579 6.88135 1.98857C6.91716 2.01136 6.95133 2.02926 6.98389 2.04228C7.01644 2.0553 7.05387 2.06832 7.09619 2.08135C7.13851 2.09437 7.16618 2.10413 7.1792 2.11064C7.27035 2.17575 7.29639 2.22132 7.25732 2.24736C7.2443 2.25387 7.21663 2.26526 7.17432 2.28154C7.132 2.29782 7.09456 2.31247 7.06201 2.32549C7.02946 2.33851 7.00993 2.35153 7.00342 2.36455C6.98389 2.39059 6.98389 2.43616 7.00342 2.50127C7.02295 2.56637 7.01644 2.61194 6.98389 2.63799C6.95133 2.60543 6.92204 2.54847 6.896 2.46709C6.86995 2.38571 6.84717 2.332 6.82764 2.30596C6.87321 2.36455 6.79183 2.38408 6.5835 2.36455L6.48584 2.35478C6.4598 2.35478 6.40771 2.36129 6.32959 2.37431C6.25146 2.38734 6.18473 2.39059 6.12939 2.38408C6.07406 2.37757 6.03011 2.35153 5.99756 2.30596C5.97152 2.25387 5.97152 2.18877 5.99756 2.11064C6.00407 2.0846 6.01709 2.07809 6.03662 2.09111C6.01058 2.07158 5.97477 2.04066 5.9292 1.99834C5.88363 1.95602 5.85107 1.92835 5.83154 1.91533C5.53206 2.01299 5.22607 2.14645 4.91357 2.31572C4.95264 2.32223 4.9917 2.31898 5.03076 2.30596C5.06331 2.29293 5.10563 2.27178 5.15771 2.24248C5.2098 2.21318 5.24235 2.19528 5.25537 2.18877C5.47673 2.09762 5.61344 2.07484 5.66553 2.12041L5.71436 2.07158C5.8055 2.17575 5.87061 2.25713 5.90967 2.31572C5.8641 2.28968 5.76644 2.28642 5.6167 2.30596C5.48649 2.34502 5.41488 2.38408 5.40186 2.42314C5.44743 2.50127 5.4637 2.55986 5.45068 2.59892C5.42464 2.57939 5.38721 2.54684 5.33838 2.50127C5.28955 2.45569 5.24235 2.41989 5.19678 2.39385C5.1512 2.3678 5.10238 2.35153 5.05029 2.34502C4.94613 2.34502 4.87451 2.34827 4.83545 2.35478C3.88493 2.87562 3.11995 3.59827 2.54053 4.52275C2.5861 4.56833 2.62516 4.59437 2.65771 4.60088C2.68376 4.60739 2.70003 4.63668 2.70654 4.68877C2.71305 4.74085 2.72119 4.77666 2.73096 4.79619C2.74072 4.81572 2.77816 4.80596 2.84326 4.76689C2.90186 4.81898 2.91162 4.88083 2.87256 4.95244C2.87907 4.94593 3.0223 5.03382 3.30225 5.21611C3.42594 5.32679 3.4943 5.39515 3.50732 5.42119C3.52686 5.4928 3.4943 5.5514 3.40967 5.59697C3.40316 5.58395 3.37386 5.55465 3.32178 5.50908C3.26969 5.46351 3.2404 5.45049 3.23389 5.47002C3.21436 5.50257 3.21598 5.56279 3.23877 5.65068C3.26007 5.73284 3.29132 5.77375 3.33253 5.77342C3.29174 5.77981 3.26374 5.83167 3.24854 5.929C3.23226 6.03317 3.22412 6.14873 3.22412 6.27568C3.22412 6.40264 3.22087 6.47913 3.21436 6.50517L3.23389 6.51494C3.21436 6.59306 3.23226 6.70537 3.2876 6.85185C3.34294 6.99834 3.41292 7.06181 3.49756 7.04228C3.41292 7.06181 3.47803 7.20179 3.69287 7.46221C3.73193 7.51429 3.75798 7.54359 3.771 7.5501C3.79053 7.56312 3.82959 7.58753 3.88818 7.62334C3.94678 7.65915 3.99561 7.6917 4.03467 7.72099C4.07373 7.75029 4.10628 7.78447 4.13232 7.82353C4.15837 7.85609 4.19092 7.92933 4.22998 8.04326C4.26904 8.15719 4.31462 8.23369 4.3667 8.27275C4.35368 8.31181 4.3846 8.37692 4.45947 8.46807C4.53434 8.55921 4.56852 8.63408 4.56201 8.69267C4.5555 8.69267 4.54736 8.69593 4.5376 8.70244C4.52783 8.70895 4.51969 8.71221 4.51318 8.71221C4.53271 8.75778 4.58317 8.80335 4.66455 8.84892C4.74593 8.8945 4.79639 8.93682 4.81592 8.97588C4.82243 8.99541 4.82894 9.02796 4.83545 9.07353C4.84196 9.11911 4.85173 9.15491 4.86475 9.18096C4.87777 9.207 4.90381 9.21351 4.94287 9.20049C4.95589 9.07028 4.87777 8.86846 4.7085 8.59502C4.61084 8.43226 4.5555 8.33786 4.54248 8.31181C4.52295 8.27926 4.50505 8.22881 4.48877 8.16045C4.47249 8.09209 4.45785 8.04489 4.44482 8.01885C4.45785 8.01885 4.47738 8.02373 4.50342 8.03349C4.52946 8.04326 4.55713 8.05465 4.58643 8.06767C4.61572 8.0807 4.64014 8.09372 4.65967 8.10674C4.6792 8.11976 4.68571 8.12952 4.6792 8.13603C4.65967 8.18161 4.66618 8.23857 4.69873 8.30693C4.73128 8.37529 4.77035 8.43551 4.81592 8.4876C4.86149 8.53968 4.91683 8.60153 4.98193 8.67314C5.04704 8.74476 5.0861 8.78708 5.09912 8.8001C5.13818 8.83916 5.18376 8.90264 5.23584 8.99053C5.28792 9.07842 5.28792 9.12236 5.23584 9.12236C5.29443 9.12236 5.35954 9.15654 5.43115 9.2249C5.50277 9.29326 5.55811 9.35674 5.59717 9.41533C5.62972 9.46741 5.65576 9.55205 5.67529 9.66924C5.69482 9.78642 5.7111 9.86455 5.72412 9.90361C5.73714 9.94919 5.76481 9.99313 5.80713 10.0354C5.84945 10.0778 5.89014 10.1087 5.9292 10.1282L6.08545 10.2063L6.2124 10.2747C6.24495 10.2877 6.30518 10.3219 6.39307 10.3772C6.48096 10.4326 6.55094 10.47 6.60303 10.4895C6.66813 10.5156 6.72021 10.5286 6.75928 10.5286C6.79834 10.5286 6.84554 10.5205 6.90088 10.5042C6.95622 10.4879 7.00016 10.4765 7.03271 10.47C7.13037 10.457 7.22477 10.5058 7.31592 10.6165C7.40706 10.7272 7.47542 10.7955 7.521 10.8216C7.75537 10.9453 7.93441 10.9811 8.05811 10.929C8.04508 10.9355 8.04671 10.9599 8.06299 11.0022C8.07926 11.0446 8.10531 11.095 8.14111 11.1536C8.17692 11.2122 8.20622 11.2594 8.229 11.2952C8.25179 11.331 8.26969 11.3587 8.28271 11.3782C8.31527 11.4173 8.37386 11.4661 8.4585 11.5247C8.54313 11.5833 8.60173 11.6321 8.63428 11.6712C8.66689 11.6495 8.68815 11.6254 8.69808 11.5992C8.68804 11.6484 8.71235 11.7082 8.771 11.7786C8.8361 11.8567 8.89469 11.8893 8.94678 11.8763C9.03792 11.8567 9.0835 11.7526 9.0835 11.5638C8.88167 11.6614 8.72217 11.6028 8.60498 11.388C8.60498 11.3815 8.59684 11.3636 8.58057 11.3343C8.56429 11.305 8.55127 11.2773 8.5415 11.2513C8.53174 11.2252 8.5236 11.1976 8.51709 11.1683C8.51058 11.139 8.51058 11.1145 8.51709 11.095C8.5236 11.0755 8.53988 11.0657 8.56592 11.0657C8.62451 11.0657 8.65706 11.0543 8.66357 11.0315C8.67008 11.0088 8.66357 10.9681 8.64404 10.9095C8.62451 10.8509 8.61149 10.8086 8.60498 10.7825C8.59847 10.7304 8.56266 10.6653 8.49756 10.5872C8.43246 10.5091 8.39339 10.4603 8.38037 10.4407C8.34782 10.4993 8.29574 10.5254 8.22412 10.5188C8.15251 10.5123 8.10042 10.483 8.06787 10.431C8.06787 10.4375 8.06299 10.4554 8.05322 10.4847C8.04346 10.514 8.03857 10.5351 8.03857 10.5481C7.95394 10.5481 7.90511 10.5449 7.89209 10.5384C7.8986 10.5188 7.90674 10.4619 7.9165 10.3675C7.92627 10.2731 7.93766 10.1998 7.95068 10.1478C7.95719 10.1217 7.9751 10.0826 8.00439 10.0306C8.03369 9.97848 8.05811 9.93128 8.07764 9.88896C8.09717 9.84665 8.11019 9.80596 8.1167 9.76689C8.12321 9.72783 8.10856 9.69691 8.07275 9.67412C8.03695 9.65133 7.97998 9.6432 7.90186 9.64971C7.77816 9.65622 7.69352 9.72132 7.64795 9.84502C7.64144 9.86455 7.63167 9.89873 7.61865 9.94756C7.60563 9.99639 7.58936 10.0338 7.56982 10.0599C7.55029 10.0859 7.521 10.1087 7.48193 10.1282C7.43636 10.1478 7.35824 10.1543 7.24756 10.1478C7.13688 10.1412 7.05876 10.125 7.01318 10.0989C6.92855 10.0468 6.85531 9.95244 6.79346 9.81572C6.73161 9.679 6.70068 9.55856 6.70068 9.45439C6.70068 9.38929 6.70882 9.30303 6.7251 9.1956C6.74137 9.08818 6.75114 9.0068 6.75439 8.95146C6.75765 8.89612 6.73975 8.81637 6.70068 8.71221C6.72021 8.69918 6.74951 8.66826 6.78857 8.61943C6.82764 8.5706 6.86019 8.53642 6.88623 8.51689C6.89925 8.51038 6.9139 8.5055 6.93018 8.50224C6.94645 8.49899 6.9611 8.49899 6.97412 8.50224C6.98714 8.5055 7.00016 8.50062 7.01318 8.4876C7.0262 8.47458 7.03597 8.45504 7.04248 8.429C7.03597 8.42249 7.02295 8.41273 7.00342 8.39971C6.99037 8.38665 6.98022 8.37796 6.97299 8.37363C7.02113 8.38927 7.11103 8.38332 7.24268 8.35576C7.38265 8.32646 7.47217 8.33135 7.51123 8.37041C7.60889 8.44202 7.6805 8.43551 7.72607 8.35088C7.72607 8.34437 7.71794 8.31344 7.70166 8.2581C7.68538 8.20277 7.68376 8.15882 7.69678 8.12627C7.72933 8.30205 7.82373 8.33135 7.97998 8.21416C7.99951 8.23369 8.04997 8.24997 8.13135 8.26299C8.21273 8.27601 8.26969 8.29228 8.30225 8.31181C8.32178 8.32484 8.34456 8.34274 8.37061 8.36553C8.39665 8.38831 8.41455 8.40296 8.42432 8.40947C8.43408 8.41598 8.45036 8.41435 8.47314 8.40459C8.49593 8.39482 8.5236 8.37366 8.55615 8.34111C8.62126 8.43226 8.66032 8.51038 8.67334 8.57549C8.74496 8.8359 8.8068 8.97913 8.85889 9.00517C8.90446 9.02471 8.94027 9.03122 8.96631 9.02471C8.99235 9.0182 9.007 8.98727 9.01025 8.93193C9.01351 8.87659 9.01351 8.83102 9.01025 8.79521C9.007 8.75941 9.00212 8.71872 8.99561 8.67314L8.98584 8.59502V8.41924L8.97607 8.34111C8.87842 8.32158 8.8182 8.28252 8.79541 8.22392C8.77262 8.16533 8.77751 8.10511 8.81006 8.04326C8.84261 7.98141 8.89144 7.92119 8.95654 7.8626C8.96305 7.85609 8.9891 7.84469 9.03467 7.82842C9.08024 7.81214 9.1307 7.79098 9.18604 7.76494C9.24137 7.7389 9.28206 7.71286 9.30811 7.68681C9.44482 7.56312 9.49365 7.44918 9.45459 7.34502C9.50016 7.34502 9.53597 7.31572 9.56201 7.25713C9.5555 7.25713 9.53923 7.24736 9.51318 7.22783C9.48714 7.2083 9.46273 7.19202 9.43994 7.179C9.41716 7.16598 9.40251 7.15947 9.396 7.15947C9.45459 7.12692 9.4611 7.07484 9.41553 7.00322C9.44808 6.98369 9.47249 6.94788 9.48877 6.8958C9.50505 6.84372 9.52946 6.81116 9.56201 6.79814C9.62061 6.87627 9.68896 6.88278 9.76709 6.81767C9.81917 6.76559 9.82243 6.71351 9.77686 6.66142C9.80941 6.61585 9.87614 6.58167 9.97705 6.55889C10.078 6.5361 10.1382 6.50517 10.1577 6.46611C10.2033 6.47913 10.2293 6.47262 10.2358 6.44658C10.2424 6.42054 10.2456 6.38148 10.2456 6.32939C10.2456 6.27731 10.2554 6.23825 10.2749 6.21221C10.3009 6.17965 10.3498 6.15036 10.4214 6.12431C10.493 6.09827 10.5353 6.082 10.5483 6.07549L10.7144 5.96806C10.7313 5.94552 10.7335 5.93273 10.7212 5.92971C10.8355 5.94061 10.9341 5.90457 11.0171 5.82158C11.0822 5.74997 11.0627 5.68486 10.9585 5.62627C10.978 5.58721 10.9683 5.55628 10.9292 5.53349C10.8901 5.51071 10.8413 5.4928 10.7827 5.47978C10.8022 5.47327 10.8397 5.47165 10.895 5.4749C10.9504 5.47816 10.9845 5.47327 10.9976 5.46025C11.0952 5.39515 11.0724 5.34306 10.9292 5.304C10.8185 5.27145 10.6785 5.31051 10.5093 5.42119ZM8.40967 2.18877C8.40902 2.18851 8.40837 2.18825 8.40774 2.18799L8.40967 2.18877ZM12.3452 12.14C11.4012 13.1361 10.2586 13.7514 8.91745 13.9857C8.90442 13.9206 8.89791 13.8685 8.89791 13.8295C8.8914 13.7774 8.91419 13.7074 8.96627 13.6195C9.01836 13.5316 9.0444 13.4649 9.0444 13.4193C8.94023 13.3933 8.90117 13.3086 8.92721 13.1654C8.94023 13.0678 9.03463 12.9375 9.21041 12.7748C9.33411 12.6641 9.37317 12.5079 9.3276 12.306C9.30807 12.2214 9.29179 12.0977 9.27877 11.9349C9.26621 11.7779 9.25365 11.6663 9.24109 11.6002C9.2477 11.617 9.27817 11.6326 9.33249 11.6469C9.39433 11.6631 9.43177 11.6843 9.44479 11.7103C9.45781 11.6908 9.47409 11.655 9.49362 11.6029C9.51315 11.5508 9.53268 11.5118 9.55221 11.4857C9.56523 11.4662 9.5929 11.4418 9.63522 11.4125C9.67754 11.3832 9.70521 11.3653 9.71823 11.3588C9.73125 11.3523 9.76054 11.3311 9.80612 11.2953C9.85169 11.2595 9.88913 11.2318 9.91842 11.2123C9.94772 11.1928 9.98678 11.1781 10.0356 11.1683C10.0844 11.1586 10.1186 11.1732 10.1381 11.2123C10.1707 11.2514 10.1642 11.3116 10.1186 11.393C10.073 11.4743 10.073 11.5313 10.1186 11.5639C10.1251 11.5443 10.1316 11.502 10.1381 11.4369C10.1447 11.3718 10.1642 11.323 10.1967 11.2904C10.2358 11.2514 10.2732 11.2286 10.309 11.2221C10.3449 11.2155 10.3774 11.2204 10.4067 11.2367C10.436 11.253 10.4702 11.2758 10.5092 11.3051C10.5483 11.3344 10.5841 11.3523 10.6167 11.3588C10.7143 11.3913 10.8315 11.4629 10.9682 11.5736C10.9617 11.5671 10.9617 11.559 10.9682 11.5492C10.9747 11.5394 10.9878 11.5297 11.0073 11.5199C11.0268 11.5101 11.0447 11.5004 11.061 11.4906C11.0773 11.4808 11.0952 11.4727 11.1147 11.4662L11.144 11.4564C11.1896 11.4564 11.2221 11.4532 11.2417 11.4467C11.2612 11.4402 11.2889 11.4467 11.3247 11.4662C11.3605 11.4857 11.3849 11.5004 11.3979 11.5101C11.4109 11.5199 11.4337 11.5378 11.4663 11.5639C11.4988 11.5899 11.5216 11.6094 11.5346 11.6224C11.5542 11.6355 11.59 11.6583 11.6421 11.6908C11.6941 11.7234 11.7348 11.7494 11.7641 11.7689C11.7934 11.7885 11.8195 11.8178 11.8422 11.8568C11.865 11.8959 11.8732 11.9382 11.8667 11.9838C11.9057 11.9903 11.9839 12.0163 12.101 12.0619C12.1206 12.0749 12.1613 12.0863 12.2231 12.0961C12.285 12.1058 12.3256 12.1205 12.3452 12.14ZM9.23971 11.5931C9.24017 11.5954 9.24063 11.5978 9.24109 11.6002C9.24017 11.5979 9.23971 11.5955 9.23971 11.5931Z" fill="white"/>
</svg>
