<svg width="16" height="16" viewBox="0 0 16 16" fill="none" xmlns="http://www.w3.org/2000/svg">
<g clip-path="url(#clip0_7029_371)">
<path opacity="0.3" d="M11.3965 0.333252H13.6297C14.9389 0.333252 16.0003 1.38538 16.0003 2.68325V13.6499C16.0003 14.9478 14.9389 15.9999 13.6297 15.9999H11.3965V0.333252Z" fill="#328CFF"/>
<path d="M1.1237 0.333252H10.6062C11.9154 0.333252 12.9768 1.38538 12.9768 2.68325V13.6499C12.9768 14.9478 11.9154 15.9999 10.6062 15.9999H1.1237C0.687283 15.9999 0.333496 15.6492 0.333496 15.2166V1.11659C0.333496 0.683962 0.687283 0.333252 1.1237 0.333252Z" fill="#328CFF"/>
<path fill-rule="evenodd" clip-rule="evenodd" d="M1.1237 0.333252H11.2589C12.5682 0.333252 13.6295 1.38538 13.6295 2.68325V13.6499C13.6295 14.9478 12.5682 15.9999 11.2589 15.9999H1.1237C0.687283 15.9999 0.333496 15.6492 0.333496 15.2166V1.11659C0.333496 0.683962 0.687283 0.333252 1.1237 0.333252ZM6.74448 7.38325C7.61732 7.38325 8.32489 6.68183 8.32489 5.81659C8.32489 4.95134 7.61732 4.24992 6.74448 4.24992C5.87165 4.24992 5.16407 4.95134 5.16407 5.81659C5.16407 6.68183 5.87165 7.38325 6.74448 7.38325ZM3.26397 12.0833C3.15388 12.0833 2.93562 11.8185 2.94488 11.6912C3.11504 9.35457 4.81559 8.16659 6.88831 8.16659C8.9902 8.16659 10.7171 9.28929 10.8457 11.6916C10.8509 11.7873 10.8457 12.0833 10.5159 12.0833H3.26397Z" fill="white"/>
</g>
<defs>
<clipPath id="clip0_7029_371">
<rect width="16" height="16" fill="white"/>
</clipPath>
</defs>
</svg>
