<svg width="24" height="24" viewBox="0 0 24 24" fill="none" xmlns="http://www.w3.org/2000/svg">
<path d="M12.7143 1.34938C12.3061 0.989335 11.6938 0.989335 11.2855 1.34938L0.388463 10.9606C0.156925 11.1648 0.0238539 11.4584 0.0228593 11.7671L0.00342369 17.8002C0.00149781 18.398 0.485591 18.8837 1.08342 18.8837H8.0081V17.4503C8.0081 15.5102 9.79585 13.9367 11.9999 13.9367C14.204 13.9367 15.9918 15.5102 15.9918 17.4503V18.8837H22.9164C23.5143 18.8837 23.9984 18.398 23.9964 17.8002L23.977 11.7671C23.976 11.4584 23.8429 11.1648 23.6114 10.9606L12.7143 1.34938Z" fill="#328CFF"/>
<path d="M22.7041 21.156C23.4198 21.1561 23.9999 21.7363 24 22.4519V22.7117C23.9999 23.4274 23.4198 24.0075 22.7041 24.0076H1.2959C0.580221 24.0075 5.98979e-05 23.4274 0 22.7117V22.4519C7.45014e-05 21.7363 0.58023 21.1561 1.2959 21.156H22.7041ZM11.2852 0.270277C11.6934 -0.0897669 12.3066 -0.0897669 12.7148 0.270277L23.6113 9.88063C23.843 10.085 23.9757 10.3794 23.9766 10.6882L23.9971 17.9207C23.9987 18.5183 23.5146 19.0037 22.917 19.0037H15.9922V16.3709C15.9922 14.4308 14.2041 12.8572 12 12.8572C9.79592 12.8572 8.00781 14.4308 8.00781 16.3709V19.0037H1.08301C0.485366 19.0037 0.00126688 18.5183 0.00292969 17.9207L0.0234375 10.6882C0.0242969 10.3794 0.15701 10.085 0.388672 9.88063L11.2852 0.270277Z" fill="white"/>
</svg>
